<?xml version="1.0" encoding="iso-8859-1"?>
<!-- Generator: Adobe Illustrator 17.0.1, SVG Export Plug-In . SVG Version: 6.00 Build 0)  -->
<!DOCTYPE svg PUBLIC "-//W3C//DTD SVG 1.1//EN" "http://www.w3.org/Graphics/SVG/1.1/DTD/svg11.dtd">
<svg version="1.1" id="Layer_1" xmlns="http://www.w3.org/2000/svg" xmlns:xlink="http://www.w3.org/1999/xlink" x="0px" y="0px"
	 width="433.538px" height="79.621px" viewBox="0 0 433.538 79.621" style="enable-background:new 0 0 433.538 79.621;"
	 xml:space="preserve">
<path style="fill:#231F20;" d="M24.419,49.528c1.627,5.458,5.145,9.121,10.528,10.656c6.248,1.781,11.802,0.248,16.325-4.452
	c3.655-3.798,6.259-10.694,2.363-18.675c0.193,0.026,0.348,0.007,0.463,0.067c9.812,5.091,16.144,12.932,18.677,23.741
	c0.116,0.496-0.016,1.207-0.311,1.62c-6.669,9.329-15.614,15.102-27.01,16.697c-13.126,1.837-24.459-2.118-33.895-11.349
	c-2.037-1.992-3.647-4.43-5.368-6.727c-0.315-0.42-0.424-1.213-0.274-1.731c3.122-10.788,9.913-18.412,20.122-22.985
	c3.314-1.485,7.017-0.293,9.104,2.7c2.044,2.931,1.788,6.75-0.628,9.384c-2.465,2.687-6.202,3.268-9.38,1.46
	C24.895,49.798,24.657,49.663,24.419,49.528z"/>
<path style="fill:#231F20;" d="M79.006,45.746C69.952,31.482,57.246,23.162,40.13,22.839c-17.117-0.323-30.059,7.668-39.774,21.403
	C-1.378,33.884,2.439,17.298,17.096,7.111c14.216-9.88,33.18-9.421,46.89,1.107C77.715,18.761,81.169,35.084,79.006,45.746z"/>
<path style="fill:#231F20;" d="M126.642,53.182c-2.235,0-4.421,0-6.78,0c0-0.467,0-0.889,0-1.31c0-4.719,0.001-9.438-0.002-14.156
	c0-0.399,0.008-0.802-0.039-1.197c-0.275-2.325-1.044-3.058-3.397-3.137c-1.468-0.05-2.94-0.009-4.556-0.009
	c0,0.562,0,1.028,0,1.494c0,5.719-0.019,11.437,0.019,17.155c0.006,0.924-0.22,1.272-1.2,1.231c-1.832-0.076-3.67-0.022-5.668-0.022
	c0-6.634,0-13.198,0-19.812c-2.661,0-5.158,0-7.79,0c0,0.528,0,0.995,0,1.462c0,5.719-0.021,11.437,0.02,17.155
	c0.007,0.951-0.266,1.251-1.217,1.215c-1.832-0.07-3.668-0.02-5.596-0.02c0-8.532,0-16.981,0-25.533
	c0.372-0.018,0.758-0.053,1.143-0.053c8.398-0.003,16.796-0.062,25.193,0.044c1.878,0.024,3.839,0.382,5.604,1.023
	c3.27,1.188,4.278,4.099,4.359,7.221c0.146,5.634,0.04,11.275,0.035,16.913C126.771,52.917,126.718,52.989,126.642,53.182z"/>
<path style="fill:#231F20;" d="M312.268,53.227c-2.318,0-4.349-0.003-6.381,0.002c-0.851,0.002-0.671-0.628-0.672-1.111
	c-0.009-3.799-0.005-7.599-0.005-11.398c0-2.396,0-4.792,0-7.275c-2.572,0-5.072,0-7.693,0c0,6.505,0,13.043,0,19.683
	c-2.287,0-4.457,0-6.734,0c0-8.44,0-16.887,0-25.42c0.355-0.022,0.702-0.063,1.05-0.063c8.438-0.004,16.877-0.025,25.315,0.02
	c1.345,0.007,2.714,0.202,4.028,0.5c3.426,0.776,5.545,3.188,5.762,6.753c0.199,3.267,0.171,6.55,0.209,9.826
	c0.029,2.479-0.016,4.959,0.018,7.438c0.01,0.744-0.165,1.086-0.994,1.065c-1.947-0.05-3.896-0.016-5.974-0.016
	c0-0.581,0-1.011,0-1.442c0-4.519,0.003-9.038-0.004-13.557c-0.001-0.518-0.03-1.038-0.088-1.553
	c-0.298-2.641-0.986-3.263-3.682-3.314c-1.159-0.022-2.319-0.007-3.479-0.006c-0.159,0-0.318,0.014-0.677,0.031
	C312.268,39.941,312.268,46.49,312.268,53.227z"/>
<path style="fill:#231F20;" d="M374.329,27.642c0-3.098,0-6.075,0-9.128c2.315,0,4.497,0,6.775,0c0,11.524,0,23.046,0,34.623
	c-0.221,0.033-0.412,0.089-0.602,0.087c-4.714-0.052-9.434,0.022-14.14-0.2c-5.592-0.264-9.636-4.281-10.345-9.836
	c-0.505-3.956-0.236-7.704,2.14-11.116c2.354-3.381,5.778-4.318,9.594-4.42C369.898,27.595,372.048,27.642,374.329,27.642z
	 M374.268,33.311c-1.4,0-2.674-0.007-3.948,0.003c-0.679,0.005-1.363-0.004-2.036,0.072c-2.786,0.311-4.615,1.776-5.001,4.354
	c-0.256,1.711-0.274,3.506-0.081,5.227c0.308,2.73,1.634,4.159,4.341,4.477c2.192,0.258,4.439,0.052,6.723,0.052
	C374.268,42.799,374.268,38.141,374.268,33.311z"/>
<path style="fill:#231F20;" d="M166.419,43.215c-0.14,3.161,1.191,4.485,4.61,4.564c3.716,0.085,7.435,0.051,11.153,0.069
	c0.434,0.002,0.867,0,1.397,0c0,1.792,0,3.487,0,5.242c-0.15,0.039-0.336,0.13-0.521,0.129c-4.955-0.04-9.916,0.051-14.863-0.175
	c-5.699-0.26-8.712-3.346-8.873-9.048c-0.149-5.273-0.028-10.555-0.021-15.832c0-0.114,0.052-0.228,0.107-0.455
	c0.361-0.021,0.743-0.064,1.125-0.064c5.718-0.004,11.435-0.017,17.153,0.012c0.87,0.004,1.762,0.112,2.605,0.325
	c3.686,0.931,5.6,4.218,5.005,8.495c-0.623,4.472-3.121,6.544-8.277,6.702c-3.076,0.094-6.157,0.029-9.235,0.036
	C167.351,43.216,166.918,43.215,166.419,43.215z M166.438,32.903c0,1.752,0,3.362,0,5.059c0.918,0,1.749,0.002,2.58,0
	c2.193-0.005,4.388,0.044,6.579-0.036c1.804-0.066,2.629-0.942,2.647-2.563c0.019-1.622-0.626-2.389-2.408-2.437
	C172.735,32.842,169.63,32.903,166.438,32.903z"/>
<path style="fill:#231F20;" d="M336.37,43.215c-0.207,3.151,1.074,4.472,4.514,4.557c3.755,0.093,7.513,0.056,11.269,0.075
	c0.43,0.002,0.86,0,1.368,0c0,1.824,0,3.518,0,5.221c-0.13,0.053-0.238,0.136-0.346,0.135c-5.272-0.05-10.549,0.031-15.813-0.204
	c-4.838-0.217-8.042-3.538-8.16-8.358c-0.134-5.472-0.033-10.95-0.029-16.426c0-0.15,0.049-0.301,0.086-0.514
	c0.306-0.021,0.575-0.057,0.845-0.057c5.915-0.003,11.831-0.023,17.746,0.005c3.58,0.017,6.194,1.817,7.071,4.826
	c0.623,2.138,0.501,4.28-0.285,6.347c-1.034,2.718-3.315,3.898-5.978,4.098c-3.617,0.272-7.259,0.213-10.89,0.293
	C337.298,43.224,336.827,43.215,336.37,43.215z M336.267,32.907c0,1.769,0,3.378,0,5.055c1.575,0,3.05,0.005,4.524-0.001
	c1.636-0.006,3.279,0.063,4.907-0.058c1.719-0.128,2.465-1.018,2.464-2.63c-0.001-1.537-0.645-2.293-2.388-2.342
	C342.629,32.844,339.479,32.907,336.267,32.907z"/>
<path style="fill:#231F20;" d="M395.946,33.071c0-1.88,0-3.582,0-5.36c0.404-0.025,0.752-0.066,1.1-0.066
	c4.4-0.004,8.8-0.024,13.2,0.013c1.032,0.009,2.082,0.118,3.089,0.341c4.492,0.995,6.888,4.006,6.929,8.759
	c0.044,5.12-0.012,10.24,0.03,15.36c0.007,0.925-0.307,1.137-1.176,1.132c-5.48-0.034-10.96-0.007-16.44-0.028
	c-0.915-0.003-1.843-0.069-2.743-0.23c-3.074-0.55-5.155-2.505-5.505-5.641c-0.193-1.728-0.004-3.604,0.481-5.278
	c0.782-2.699,3.083-3.774,5.679-4.084c1.937-0.231,3.904-0.236,5.859-0.274c2.194-0.043,4.389-0.01,6.564-0.01
	c0.534-2.248-0.348-3.842-2.468-4.304c-1.12-0.244-2.296-0.303-3.448-0.315C403.424,33.047,399.75,33.071,395.946,33.071z
	 M413.132,42.87c-2.905,0-5.732-0.017-8.56,0.014c-0.588,0.006-1.201,0.109-1.755,0.302c-1.194,0.415-1.627,1.357-1.45,2.935
	c0.13,1.158,0.845,1.674,1.945,1.7c2.435,0.058,4.871,0.095,7.307,0.133c0.827,0.013,1.654,0.002,2.513,0.002
	C413.132,46.172,413.132,44.554,413.132,42.87z"/>
<path style="fill:#231F20;" d="M271.781,53.231c-0.555,0-0.987,0-1.419,0c-5.277,0-10.553,0.017-15.83-0.013
	c-1.112-0.006-2.249-0.064-3.328-0.305c-3.857-0.86-5.807-4.027-5.267-8.403c0.559-4.535,3.017-6.623,8.146-6.77
	c3.076-0.089,6.155-0.029,9.233-0.035c0.432-0.001,0.864,0,1.271,0c0.53-2.852-0.89-4.484-4.053-4.563
	c-3.795-0.095-7.594-0.053-11.391-0.069c-0.471-0.002-0.943,0-1.499,0c0-1.816,0-3.515,0-5.372c0.341-0.018,0.72-0.054,1.1-0.054
	c4.357-0.004,8.714-0.019,13.071,0.011c0.953,0.007,1.919,0.106,2.854,0.29c4.434,0.872,6.965,3.664,7.077,8.203
	C271.886,41.775,271.781,47.408,271.781,53.231z M264.8,42.887c-3.01,0-5.912-0.02-8.812,0.016c-0.624,0.008-1.278,0.127-1.86,0.349
	c-0.971,0.369-1.487,1.603-1.291,2.821c0.176,1.092,0.781,1.725,1.922,1.744c2.989,0.052,5.979,0.096,8.969,0.135
	c0.346,0.004,0.692-0.045,1.072-0.071C264.8,46.19,264.8,44.6,264.8,42.887z"/>
<path style="fill:#231F20;" d="M186.866,27.524c5.358,0.123,10.761,0.038,16.129,0.437c4.415,0.329,6.791,2.969,6.984,7.686
	c0.237,5.787,0.056,11.59,0.056,17.568c-2.132,0-4.237,0.028-6.338-0.051c-0.177-0.007-0.466-0.727-0.469-1.117
	c-0.033-4.64-0.02-9.279-0.022-13.919c-0.001-4.114-0.664-4.77-4.819-4.773c-1.591-0.001-3.181,0-4.917,0c0,0.578,0,1.044,0,1.51
	c0,5.72-0.019,11.44,0.019,17.159c0.006,0.931-0.232,1.274-1.205,1.226c-1.596-0.078-3.199-0.039-4.799-0.014
	c-0.617,0.01-0.847-0.216-0.845-0.839c0.021-8.119,0.025-16.238,0.037-24.357C186.676,27.968,186.728,27.895,186.866,27.524z"/>
<path style="fill:#231F20;" d="M212.086,27.702c0.528-0.024,0.916-0.057,1.304-0.058c4.038-0.004,8.076-0.048,12.112,0.022
	c1.425,0.025,2.877,0.204,4.263,0.537c3.657,0.877,5.518,3.111,5.665,7.441c0.196,5.787,0.048,11.585,0.048,17.482
	c-2.2,0-4.37,0-6.662,0c-0.021-0.429-0.059-0.853-0.059-1.277c-0.004-4.317,0.003-8.635-0.008-12.952
	c-0.002-0.757-0.042-1.517-0.112-2.27c-0.232-2.473-0.913-3.163-3.371-3.24c-2.035-0.063-4.074-0.013-6.28-0.013
	c0,6.589,0,13.151,0,19.852c-2.194,0-4.223,0.032-6.248-0.045c-0.229-0.009-0.617-0.629-0.623-0.971
	c-0.049-2.997-0.029-5.996-0.029-8.994c0-4.717,0-9.434,0-14.151C212.086,28.636,212.086,28.208,212.086,27.702z"/>
<path style="fill:#231F20;" d="M140.26,53.231c0-11.658,0-23.153,0-34.722c2.364,0,4.663,0,7.13,0c0,0.462,0,0.888,0,1.314
	c0,10.674-0.015,21.348,0.023,32.022c0.004,1.083-0.257,1.469-1.388,1.412C144.157,53.162,142.281,53.231,140.26,53.231z"/>
<path style="fill:#231F20;" d="M281.062,53.228c-2.156,0-4.229,0.028-6.299-0.035c-0.259-0.008-0.569-0.459-0.733-0.769
	c-0.116-0.219-0.024-0.548-0.024-0.828c0-10.518,0-21.036,0-31.554c0-0.472,0-0.945,0-1.511c2.4,0,4.692,0,7.056,0
	C281.062,30.042,281.062,41.545,281.062,53.228z"/>
<path style="fill:#231F20;" d="M157.282,53.164c-2.334,0-4.59,0-6.927,0c0-11.55,0-23.036,0-34.626c2.275,0,4.56,0,6.927,0
	C157.282,30.069,157.282,41.583,157.282,53.164z"/>
<path style="fill:#231F20;" d="M386.133,27.688c2.389,0,4.658,0,7.005,0c0,8.495,0,16.944,0,25.468c-2.321,0-4.619,0-7.005,0
	C386.133,44.674,386.133,36.23,386.133,27.688z"/>
<path style="fill:#231F20;" d="M137.138,27.733c0,8.508,0,16.925,0,25.492c-2.205,0-4.35,0.007-6.495-0.003
	c-0.855-0.004-0.628-0.675-0.629-1.143c-0.014-3.795-0.008-7.589-0.008-11.384c0-3.875,0-7.749,0-11.624c0-0.43,0-0.86,0-1.338
	C132.471,27.733,134.796,27.733,137.138,27.733z"/>
<path style="fill:#231F20;" d="M237.781,27.71c2.378,0,4.64,0,6.987,0c0.023,0.452,0.059,0.842,0.059,1.231
	c0.003,7.674-0.014,15.347,0.023,23.021c0.005,0.976-0.238,1.333-1.261,1.291c-1.908-0.078-3.82-0.022-5.808-0.022
	C237.781,44.676,237.781,36.23,237.781,27.71z"/>
<path style="fill:#231F20;" d="M386.111,24.812c0-2.108,0-4.164,0-6.299c2.353,0,4.652,0,7.029,0c0,2.074,0,4.137,0,6.299
	C390.83,24.812,388.504,24.812,386.111,24.812z"/>
<path style="fill:#231F20;" d="M137.126,24.907c-2.23,0-4.34,0.019-6.448-0.028c-0.227-0.005-0.632-0.39-0.637-0.607
	c-0.051-1.904-0.029-3.809-0.029-5.773c2.446,0,4.742,0,7.114,0C137.126,20.619,137.126,22.675,137.126,24.907z"/>
<path style="fill:#231F20;" d="M244.824,18.517c0,1.951,0.021,3.858-0.03,5.764c-0.006,0.214-0.417,0.594-0.646,0.599
	c-2.107,0.047-4.216,0.027-6.384,0.027c0-2.189,0-4.249,0-6.39C240.09,18.517,242.382,18.517,244.824,18.517z"/>
<path style="fill:#231F20;" d="M433.538,57.591c0,2.51-1.937,4.489-4.421,4.519c-2.425,0.029-4.485-2.017-4.51-4.48
	c-0.026-2.548,1.983-4.565,4.529-4.548C431.646,53.099,433.538,55.038,433.538,57.591z M429.156,61.287
	c2.085-0.016,3.7-1.656,3.688-3.746c-0.011-2.007-1.763-3.762-3.754-3.763c-2.03-0.001-3.759,1.805-3.73,3.896
	C425.389,59.778,426.992,61.303,429.156,61.287z"/>
<g>
	<path style="fill:#231F20;" d="M427.325,59.89v-4.528h1.925c0.483,0,0.835,0.041,1.055,0.122c0.22,0.082,0.395,0.227,0.526,0.435
		s0.198,0.445,0.198,0.713c0,0.34-0.101,0.62-0.3,0.842c-0.2,0.222-0.498,0.361-0.896,0.419c0.197,0.115,0.36,0.241,0.489,0.38
		c0.129,0.138,0.302,0.383,0.521,0.734l0.553,0.884h-1.094l-0.66-0.985c-0.235-0.353-0.396-0.574-0.482-0.666
		c-0.086-0.091-0.178-0.154-0.274-0.188c-0.097-0.034-0.251-0.052-0.461-0.052h-0.185v1.891H427.325z M428.24,57.276h0.676
		c0.438,0,0.713-0.019,0.822-0.056c0.108-0.037,0.194-0.101,0.256-0.191s0.093-0.204,0.093-0.34c0-0.152-0.041-0.275-0.122-0.369
		s-0.196-0.152-0.345-0.178c-0.073-0.01-0.296-0.015-0.667-0.015h-0.713V57.276z"/>
</g>
</svg>
